<svg width="3060" height="3960" xmlns="http://www.w3.org/2000/svg" version="1.2" baseProfile="tiny"><path fill="#fff" fill-rule="evenodd" d="M0 0h3060v3960H0V0"/><path class="StaffLines" fill="none" stroke="#000" stroke-width="2" stroke-linejoin="bevel" d="M194.232 316.732H2918.27M194.232 341.732H2918.27M194.232 366.732H2918.27M194.232 391.732H2918.27M194.232 416.732H2918.27M194.232 579.233H2918.27M194.232 604.233H2918.27M194.232 629.233H2918.27M194.232 654.233H2918.27M194.232 679.233H2918.27M194.232 1054.23H2918.27M194.232 1079.23H2918.27M194.232 1104.23H2918.27M194.232 1129.23H2918.27M194.232 1154.23H2918.27M194.232 1316.73H2918.27M194.232 1341.73H2918.27M194.232 1366.73H2918.27M194.232 1391.73H2918.27M194.232 1416.73H2918.27"/><path class="MeasureNumber" d="M175.967 247.685c.135-.614.27-1.148.406-1.601.135-.453.422-1.112.859-1.977.438-.864.93-1.583 1.477-2.156.547-.573 1.307-1.086 2.281-1.539.974-.453 2.076-.68 3.305-.68 2.062 0 3.804.68 5.226 2.039 1.422 1.36 2.133 3.034 2.133 5.024 0 3.031-1.703 6.344-5.109 9.937l-6.688 7.078h9.516c.906 0 1.578-.153 2.016-.46.437-.308 1.031-1.04 1.781-2.196l.515.203-2.187 5.375h-15.563v-.468l7.11-7.547c3.469-3.677 5.203-7.141 5.203-10.391 0-1.687-.521-3.055-1.563-4.101-1.041-1.047-2.401-1.571-4.078-1.571-1.385 0-2.497.383-3.336 1.149-.838.765-1.659 2.127-2.461 4.086l-.843-.204m21.984 15.844c.615 0 1.529.375 2.742 1.125 1.214.75 2.274 1.125 3.18 1.125 1.469 0 2.708-.57 3.719-1.711 1.01-1.14 1.515-2.544 1.515-4.211 0-1.041-.148-1.958-.445-2.75-.297-.791-.708-1.406-1.234-1.843-.526-.438-1.177-.795-1.954-1.071a10.336 10.336 0 00-2.179-.539 17.875 17.875 0 00-2.172-.125v-.515a25.76 25.76 0 002.336-.946 13.276 13.276 0 002.055-1.234 5.313 5.313 0 001.656-1.899c.385-.75.578-1.604.578-2.562 0-1.25-.406-2.276-1.219-3.078-.812-.802-1.87-1.203-3.172-1.203-1.25 0-2.349.341-3.297 1.023-.948.682-1.838 1.758-2.671 3.227l-.594-.172c.698-1.886 1.638-3.435 2.82-4.649 1.182-1.213 2.867-1.82 5.055-1.82 1.844 0 3.338.505 4.484 1.516 1.146 1.01 1.719 2.328 1.719 3.953 0 1.094-.279 2.055-.836 2.883-.557.828-1.534 1.711-2.93 2.648 1.604.688 2.86 1.568 3.766 2.641.906 1.073 1.359 2.609 1.359 4.609 0 2.833-1.086 5.099-3.258 6.797-2.171 1.698-4.846 2.547-8.023 2.547-1.385 0-2.484-.211-3.297-.633-.812-.422-1.219-.987-1.219-1.695 0-.438.141-.787.422-1.047.282-.261.646-.391 1.094-.391M175.967 985.186c.135-.615.27-1.148.406-1.602.135-.453.422-1.112.859-1.976.438-.865.93-1.584 1.477-2.156.547-.573 1.307-1.086 2.281-1.539.974-.454 2.076-.68 3.305-.68 2.062 0 3.804.68 5.226 2.039 1.422 1.359 2.133 3.034 2.133 5.023 0 3.032-1.703 6.344-5.109 9.938l-6.688 7.077h9.516c.906 0 1.578-.15 2.016-.46.437-.31 1.031-1.039 1.781-2.195l.515.203-2.187 5.372h-15.563v-.47l7.11-7.543c3.469-3.677 5.203-7.14 5.203-10.39 0-1.688-.521-3.055-1.563-4.102-1.041-1.047-2.401-1.57-4.078-1.57-1.385 0-2.497.383-3.336 1.148-.838.766-1.659 2.128-2.461 4.086l-.843-.203m36.703-7.422v.625l-8.469 26.161h-2.609l7.922-23.88h-8.672c-1.094 0-1.927.201-2.5.602-.573.401-1.287 1.284-2.141 2.648l-.687-.312 2.359-5.844h14.797"/><path class="BarLine" fill="none" stroke="#000" stroke-width="4" stroke-linejoin="bevel" d="M196.232 578.233v102M1033.48 578.233v102M1669.66 578.233v102M2304.04 578.233v102M2916.27 578.233v102M196.232 1315.73v102M1005.27 1315.73v102M1387.47 1315.73v102M1769.67 1315.73v102M2151.87 1315.73v102M2534.07 1315.73v102M2893.77 1315.73v102"/><path class="BarLine" fill="none" stroke="#000" stroke-width="12.5" stroke-linejoin="bevel" d="M2912.02 1315.73v102"/><path class="BarLine" fill="none" stroke="#000" stroke-width="4" stroke-linejoin="bevel" d="M196.232 315.732v263.501M1033.48 315.732v263.501M1669.66 315.732v263.501M2304.04 315.732v263.501M2916.27 315.732v263.501M196.232 1053.23v263.5M1005.27 1053.23v263.5M1387.47 1053.23v263.5M1769.67 1053.23v263.5M2151.87 1053.23v263.5M2534.07 1053.23v263.5M2893.77 1053.23v263.5"/><path class="BarLine" fill="none" stroke="#000" stroke-width="12.5" stroke-linejoin="bevel" d="M2912.02 1053.23v263.5"/><path class="Accidental" d="M2830.59 610.389c0 1.239-.62 1.859-1.85 1.859-1.24 0-1.85-.62-1.85-1.859v-14.453l-8.3 3.125v15.812c0 1.24-.62 1.86-1.86 1.86-1.24 0-1.86-.62-1.86-1.86v-14.547l-3.12 1.172c-.07.063-.33.094-.79.094-.52 0-.97-.195-1.36-.586-.39-.391-.59-.846-.59-1.367v-6.047c0-.979.42-1.599 1.27-1.859l4.59-1.563v-16.016l-3.12 1.079c-.07.062-.33.093-.79.093-.52 0-.97-.195-1.36-.586-.39-.39-.59-.846-.59-1.367v-6.062c0-.907.42-1.49 1.27-1.75l4.59-1.766v-15.719c0-1.239.62-1.859 1.86-1.859 1.24 0 1.86.62 1.86 1.859v14.453l8.3-3.125v-15.812c0-1.24.61-1.859 1.85-1.859 1.23 0 1.85.619 1.85 1.859v14.547l3.23-1.172c.07-.063.29-.094.68-.094.45 0 .94.193 1.46.578.4.396.6.854.6 1.375v6.047c0 .917-.46 1.537-1.38 1.86l-4.59 1.562v16.016l3.23-1.078c.07-.063.29-.094.68-.094.45 0 .94.198 1.46.594.4.385.6.838.6 1.359v6.062c0 .844-.46 1.428-1.38 1.75l-4.59 1.766v15.719m-3.7-40.625l-8.3 2.922v16.015l8.3-2.922v-16.015"/><path class="LedgerLine" fill="none" stroke="#000" stroke-width="4" stroke-linecap="square" stroke-linejoin="bevel" d="M494.276 554.233h47.914M569.948 554.233h47.914M569.948 529.233h47.914M645.62 554.233h47.914M796.965 554.233h47.914M796.965 529.233h47.914M872.637 554.233h47.914M872.637 529.233h47.914M872.637 504.233h47.914M948.31 554.233h47.914M948.31 529.233h47.914M1130.46 554.233h47.91M1206.13 554.233h47.92M1206.13 529.233h47.92M1281.8 554.233h47.92M1433.15 554.233h47.91M1433.15 529.233h47.91M1508.82 554.233h47.91M1508.82 529.233h47.91M1508.82 504.233h47.91M1584.49 554.233h47.92M1584.49 529.233h47.92M1764.84 554.233h47.91M1840.51 554.233h47.91M1840.51 529.233h47.91M1916.18 554.233h47.92M2067.53 554.233h47.91M2143.2 554.233h47.91M2143.2 529.233h47.91M2218.87 554.233h47.91M2395.76 554.233h47.91M2467.98 554.233h47.91M2467.98 529.233h47.91M2540.2 554.233h47.91M511.695 1291.73h47.914M604.787 1291.73h47.914M604.787 1266.73h47.914M697.879 1291.73h47.914"/><path class="Stem" fill="none" stroke="#000" stroke-width="3.25" stroke-linecap="round" stroke-linejoin="bevel" d="M427.729 571.428v64.055M503.401 546.428v84.888M579.073 521.428v105.721M654.745 546.428v76.555M730.418 571.428v64.055M806.09 533.928v97.388M881.762 508.928v118.221M957.435 533.928v89.055M1063.91 571.428v64.055M1139.58 546.428v84.888M1215.26 521.428v105.721M1290.93 546.428v76.555M1366.6 571.428v64.055M1442.27 533.928v97.388M1517.95 508.928v118.221M1593.62 533.928v89.055M1698.29 571.428v64.055M1773.96 546.428v84.888M1849.63 521.428v105.721M1925.31 546.428v76.555M2000.98 571.428v64.055M2076.65 546.428v84.888M2152.32 521.428v105.721M2228 546.428v76.555M2332.67 571.428v64.055M2404.89 546.428v84.888M2477.1 521.428v105.721M2549.32 546.428v76.555M2621.54 596.428v76.555M2693.76 571.428v101.555M2765.97 608.928v64.055M2843.68 583.928v89.055M427.729 1308.93v64.05M520.82 1283.93v84.89M613.912 1258.93v105.72M707.004 1283.93v76.55M799.194 1308.15v83.58M426.826 370.652v74.205M806.09 333.928v76.554M881.762 346.428v70.304M957.435 358.928v64.054M1063.01 320.652v83.58M1366.6 371.428v70.304M1442.27 358.928v72.388M1517.95 346.428v74.471M1593.62 333.928v76.554M1698.29 321.428v82.804M1925.31 346.428v82.804M2000.98 321.428v82.804M2228 346.428v82.804M2332.67 321.428v82.804M2549.32 371.428v82.804M2651.2 337.037v-70.305M2723.42 362.037v-95.305M2795.64 399.537V266.732M2873.34 337.037v-70.305M426.826 1108.15v74.21"/><path class="Note" d="M448.072 552.967c3.125 0 5.766.812 7.922 2.437 2.011 1.761 3.016 3.974 3.016 6.641 0 4.49-2.308 8.688-6.922 12.594-4.688 3.906-9.703 5.859-15.047 5.859-3.125 0-5.76-.812-7.906-2.437-2.021-1.761-3.031-3.974-3.031-6.641 0-4.49 2.343-8.687 7.031-12.594 4.562-3.906 9.541-5.859 14.937-5.859M523.745 527.967c3.125 0 5.765.812 7.921 2.437 2.011 1.761 3.016 3.974 3.016 6.641 0 4.49-2.307 8.688-6.922 12.594-4.687 3.906-9.703 5.859-15.047 5.859-3.125 0-5.76-.812-7.906-2.437-2.021-1.761-3.031-3.974-3.031-6.641 0-4.49 2.344-8.687 7.031-12.594 4.563-3.906 9.542-5.859 14.938-5.859M599.417 502.967c3.125 0 5.765.812 7.922 2.437 2.01 1.761 3.015 3.974 3.015 6.641 0 4.49-2.307 8.688-6.922 12.594-4.687 3.906-9.703 5.859-15.046 5.859-3.125 0-5.761-.812-7.907-2.437-2.02-1.761-3.031-3.974-3.031-6.641 0-4.49 2.344-8.687 7.031-12.594 4.563-3.906 9.542-5.859 14.938-5.859M675.089 527.967c3.125 0 5.766.812 7.922 2.437 2.01 1.761 3.016 3.974 3.016 6.641 0 4.49-2.308 8.688-6.922 12.594-4.688 3.906-9.703 5.859-15.047 5.859-3.125 0-5.761-.812-7.906-2.437-2.021-1.761-3.032-3.974-3.032-6.641 0-4.49 2.344-8.687 7.032-12.594 4.562-3.906 9.541-5.859 14.937-5.859M750.761 552.967c3.125 0 5.766.812 7.922 2.437 2.011 1.761 3.016 3.974 3.016 6.641 0 4.49-2.307 8.688-6.922 12.594-4.687 3.906-9.703 5.859-15.047 5.859-3.125 0-5.76-.812-7.906-2.437-2.021-1.761-3.031-3.974-3.031-6.641 0-4.49 2.343-8.687 7.031-12.594 4.562-3.906 9.542-5.859 14.937-5.859M826.434 515.467c3.125 0 5.765.812 7.922 2.437 2.01 1.761 3.015 3.974 3.015 6.641 0 4.49-2.307 8.688-6.922 12.594-4.687 3.906-9.703 5.859-15.047 5.859-3.125 0-5.76-.812-7.906-2.437-2.021-1.761-3.031-3.974-3.031-6.641 0-4.49 2.344-8.687 7.031-12.594 4.563-3.906 9.542-5.859 14.938-5.859M902.106 490.467c3.125 0 5.766.812 7.922 2.437 2.01 1.761 3.015 3.974 3.015 6.641 0 4.49-2.307 8.688-6.921 12.594-4.688 3.906-9.704 5.859-15.047 5.859-3.125 0-5.761-.812-7.907-2.437-2.02-1.761-3.031-3.974-3.031-6.641 0-4.49 2.344-8.687 7.031-12.594 4.563-3.906 9.542-5.859 14.938-5.859M977.778 515.467c3.125 0 5.766.812 7.922 2.437 2.011 1.761 3.016 3.974 3.016 6.641 0 4.49-2.308 8.688-6.922 12.594-4.688 3.906-9.703 5.859-15.047 5.859-3.125 0-5.76-.812-7.906-2.437-2.021-1.761-3.031-3.974-3.031-6.641 0-4.49 2.343-8.687 7.031-12.594 4.562-3.906 9.541-5.859 14.937-5.859M1084.26 552.967c3.12 0 5.76.812 7.92 2.437 2.01 1.761 3.01 3.974 3.01 6.641 0 4.49-2.3 8.688-6.92 12.594-4.69 3.906-9.7 5.859-15.05 5.859-3.12 0-5.76-.812-7.9-2.437-2.02-1.761-3.03-3.974-3.03-6.641 0-4.49 2.34-8.687 7.03-12.594 4.56-3.906 9.54-5.859 14.94-5.859M1159.93 527.967c3.12 0 5.76.812 7.92 2.437 2.01 1.761 3.02 3.974 3.02 6.641 0 4.49-2.31 8.688-6.93 12.594-4.68 3.906-9.7 5.859-15.04 5.859-3.13 0-5.76-.812-7.91-2.437-2.02-1.761-3.03-3.974-3.03-6.641 0-4.49 2.34-8.687 7.03-12.594 4.56-3.906 9.54-5.859 14.94-5.859M1235.6 502.967c3.12 0 5.77.812 7.92 2.437 2.01 1.761 3.02 3.974 3.02 6.641 0 4.49-2.31 8.688-6.92 12.594-4.69 3.906-9.71 5.859-15.05 5.859-3.13 0-5.76-.812-7.91-2.437-2.02-1.761-3.03-3.974-3.03-6.641 0-4.49 2.34-8.687 7.03-12.594 4.56-3.906 9.54-5.859 14.94-5.859M1311.27 527.967c3.13 0 5.77.812 7.92 2.437 2.01 1.761 3.02 3.974 3.02 6.641 0 4.49-2.31 8.688-6.92 12.594-4.69 3.906-9.71 5.859-15.05 5.859-3.12 0-5.76-.812-7.91-2.437-2.02-1.761-3.03-3.974-3.03-6.641 0-4.49 2.35-8.687 7.03-12.594 4.57-3.906 9.55-5.859 14.94-5.859M1386.94 552.967c3.13 0 5.77.812 7.93 2.437 2.01 1.761 3.01 3.974 3.01 6.641 0 4.49-2.31 8.688-6.92 12.594-4.69 3.906-9.7 5.859-15.05 5.859-3.12 0-5.76-.812-7.9-2.437-2.02-1.761-3.03-3.974-3.03-6.641 0-4.49 2.34-8.687 7.03-12.594 4.56-3.906 9.54-5.859 14.93-5.859M1462.62 515.467c3.12 0 5.76.812 7.92 2.437 2.01 1.761 3.01 3.974 3.01 6.641 0 4.49-2.3 8.688-6.92 12.594-4.69 3.906-9.7 5.859-15.04 5.859-3.13 0-5.76-.812-7.91-2.437-2.02-1.761-3.03-3.974-3.03-6.641 0-4.49 2.34-8.687 7.03-12.594 4.56-3.906 9.54-5.859 14.94-5.859M1538.29 490.467c3.12 0 5.76.812 7.92 2.437 2.01 1.761 3.02 3.974 3.02 6.641 0 4.49-2.31 8.688-6.93 12.594-4.68 3.906-9.7 5.859-15.04 5.859-3.13 0-5.76-.812-7.91-2.437-2.02-1.761-3.03-3.974-3.03-6.641 0-4.49 2.34-8.687 7.03-12.594 4.56-3.906 9.54-5.859 14.94-5.859M1613.96 515.467c3.13 0 5.77.812 7.92 2.437 2.01 1.761 3.02 3.974 3.02 6.641 0 4.49-2.31 8.688-6.92 12.594-4.69 3.906-9.71 5.859-15.05 5.859-3.12 0-5.76-.812-7.91-2.437-2.02-1.761-3.03-3.974-3.03-6.641 0-4.49 2.35-8.687 7.03-12.594 4.57-3.906 9.55-5.859 14.94-5.859M1718.63 552.967c3.13 0 5.77.812 7.93 2.437 2.01 1.761 3.01 3.974 3.01 6.641 0 4.49-2.31 8.688-6.92 12.594-4.69 3.906-9.7 5.859-15.05 5.859-3.12 0-5.76-.812-7.9-2.437-2.02-1.761-3.04-3.974-3.04-6.641 0-4.49 2.35-8.687 7.04-12.594 4.56-3.906 9.54-5.859 14.93-5.859M1794.31 527.967c3.12 0 5.76.812 7.92 2.437 2.01 1.761 3.01 3.974 3.01 6.641 0 4.49-2.3 8.688-6.92 12.594-4.69 3.906-9.7 5.859-15.05 5.859-3.12 0-5.76-.812-7.9-2.437-2.02-1.761-3.03-3.974-3.03-6.641 0-4.49 2.34-8.687 7.03-12.594 4.56-3.906 9.54-5.859 14.94-5.859M1869.98 502.967c3.12 0 5.76.812 7.92 2.437 2.01 1.761 3.02 3.974 3.02 6.641 0 4.49-2.31 8.688-6.93 12.594-4.68 3.906-9.7 5.859-15.04 5.859-3.13 0-5.76-.812-7.91-2.437-2.02-1.761-3.03-3.974-3.03-6.641 0-4.49 2.34-8.687 7.03-12.594 4.56-3.906 9.54-5.859 14.94-5.859M1945.65 527.967c3.13 0 5.77.812 7.92 2.437 2.01 1.761 3.02 3.974 3.02 6.641 0 4.49-2.31 8.688-6.92 12.594-4.69 3.906-9.71 5.859-15.05 5.859-3.13 0-5.76-.812-7.91-2.437-2.02-1.761-3.03-3.974-3.03-6.641 0-4.49 2.35-8.687 7.03-12.594 4.57-3.906 9.54-5.859 14.94-5.859M2021.32 552.967c3.13 0 5.77.812 7.92 2.437 2.02 1.761 3.02 3.974 3.02 6.641 0 4.49-2.31 8.688-6.92 12.594-4.69 3.906-9.7 5.859-15.05 5.859-3.12 0-5.76-.812-7.9-2.437-2.03-1.761-3.04-3.974-3.04-6.641 0-4.49 2.35-8.687 7.04-12.594 4.56-3.906 9.54-5.859 14.93-5.859M2097 527.967c3.12 0 5.76.812 7.92 2.437 2.01 1.761 3.01 3.974 3.01 6.641 0 4.49-2.3 8.688-6.92 12.594-4.69 3.906-9.7 5.859-15.05 5.859-3.12 0-5.76-.812-7.9-2.437-2.02-1.761-3.03-3.974-3.03-6.641 0-4.49 2.34-8.687 7.03-12.594 4.56-3.906 9.54-5.859 14.94-5.859M2172.67 502.967c3.12 0 5.76.812 7.92 2.437 2.01 1.761 3.01 3.974 3.01 6.641 0 4.49-2.3 8.688-6.92 12.594-4.68 3.906-9.7 5.859-15.04 5.859-3.13 0-5.76-.812-7.91-2.437-2.02-1.761-3.03-3.974-3.03-6.641 0-4.49 2.34-8.687 7.03-12.594 4.56-3.906 9.54-5.859 14.94-5.859M2248.34 527.967c3.12 0 5.77.812 7.92 2.437 2.01 1.761 3.02 3.974 3.02 6.641 0 4.49-2.31 8.688-6.92 12.594-4.69 3.906-9.71 5.859-15.05 5.859-3.13 0-5.76-.812-7.91-2.437-2.02-1.761-3.03-3.974-3.03-6.641 0-4.49 2.34-8.687 7.03-12.594 4.56-3.906 9.54-5.859 14.94-5.859M2353.01 552.967c3.13 0 5.77.812 7.92 2.437 2.01 1.761 3.02 3.974 3.02 6.641 0 4.49-2.31 8.688-6.92 12.594-4.69 3.906-9.71 5.859-15.05 5.859-3.12 0-5.76-.812-7.91-2.437-2.02-1.761-3.03-3.974-3.03-6.641 0-4.49 2.35-8.687 7.03-12.594 4.57-3.906 9.55-5.859 14.94-5.859M2425.23 527.967c3.12 0 5.76.812 7.92 2.437 2.01 1.761 3.02 3.974 3.02 6.641 0 4.49-2.31 8.688-6.93 12.594-4.68 3.906-9.7 5.859-15.04 5.859-3.13 0-5.76-.812-7.91-2.437-2.02-1.761-3.03-3.974-3.03-6.641 0-4.49 2.34-8.687 7.03-12.594 4.56-3.906 9.54-5.859 14.94-5.859M2497.45 502.967c3.12 0 5.76.812 7.92 2.437 2.01 1.761 3.01 3.974 3.01 6.641 0 4.49-2.3 8.688-6.92 12.594-4.69 3.906-9.7 5.859-15.04 5.859-3.13 0-5.76-.812-7.91-2.437-2.02-1.761-3.03-3.974-3.03-6.641 0-4.49 2.34-8.687 7.03-12.594 4.56-3.906 9.54-5.859 14.94-5.859M2569.66 527.967c3.13 0 5.77.812 7.93 2.437 2.01 1.761 3.01 3.974 3.01 6.641 0 4.49-2.31 8.688-6.92 12.594-4.69 3.906-9.7 5.859-15.05 5.859-3.12 0-5.76-.812-7.9-2.437-2.02-1.761-3.03-3.974-3.03-6.641 0-4.49 2.34-8.687 7.03-12.594 4.56-3.906 9.54-5.859 14.93-5.859M2641.88 577.967c3.13 0 5.77.812 7.92 2.437 2.01 1.761 3.02 3.974 3.02 6.641 0 4.49-2.31 8.688-6.92 12.594-4.69 3.906-9.71 5.859-15.05 5.859-3.12 0-5.76-.812-7.91-2.437-2.02-1.761-3.03-3.974-3.03-6.641 0-4.49 2.35-8.687 7.03-12.594 4.57-3.906 9.55-5.859 14.94-5.859M2714.1 552.967c3.12 0 5.76.812 7.92 2.437 2.01 1.761 3.02 3.974 3.02 6.641 0 4.49-2.31 8.688-6.93 12.594-4.68 3.906-9.7 5.859-15.04 5.859-3.13 0-5.76-.812-7.91-2.437-2.02-1.761-3.03-3.974-3.03-6.641 0-4.49 2.34-8.687 7.03-12.594 4.56-3.906 9.54-5.859 14.94-5.859M2786.32 590.467c3.12 0 5.76.812 7.92 2.437 2.01 1.761 3.01 3.974 3.01 6.641 0 4.49-2.3 8.688-6.92 12.594-4.69 3.906-9.7 5.859-15.04 5.859-3.13 0-5.77-.812-7.91-2.437-2.02-1.761-3.03-3.974-3.03-6.641 0-4.49 2.34-8.687 7.03-12.594 4.56-3.906 9.54-5.859 14.94-5.859M2864.02 565.467c3.12 0 5.77.812 7.92 2.437 2.01 1.761 3.02 3.974 3.02 6.641 0 4.49-2.31 8.688-6.92 12.594-4.69 3.906-9.71 5.859-15.05 5.859-3.13 0-5.76-.812-7.91-2.437-2.02-1.761-3.03-3.974-3.03-6.641 0-4.49 2.34-8.687 7.03-12.594 4.56-3.906 9.54-5.859 14.94-5.859M448.072 1290.47c3.125 0 5.766.81 7.922 2.43 2.011 1.77 3.016 3.98 3.016 6.65 0 4.49-2.308 8.68-6.922 12.59-4.688 3.91-9.703 5.86-15.047 5.86-3.125 0-5.76-.81-7.906-2.44-2.021-1.76-3.031-3.97-3.031-6.64 0-4.49 2.343-8.69 7.031-12.59 4.562-3.91 9.541-5.86 14.937-5.86M541.164 1265.47c3.125 0 5.766.81 7.922 2.43 2.01 1.77 3.016 3.98 3.016 6.65 0 4.49-2.308 8.68-6.922 12.59-4.688 3.91-9.703 5.86-15.047 5.86-3.125 0-5.761-.81-7.906-2.44-2.021-1.76-3.032-3.97-3.032-6.64 0-4.49 2.344-8.69 7.032-12.59 4.562-3.91 9.541-5.86 14.937-5.86M634.256 1240.47c3.125 0 5.766.81 7.922 2.43 2.01 1.77 3.015 3.98 3.015 6.65 0 4.49-2.307 8.68-6.921 12.59-4.688 3.91-9.704 5.86-15.047 5.86-3.125 0-5.761-.81-7.907-2.44-2.02-1.76-3.031-3.97-3.031-6.64 0-4.49 2.344-8.69 7.031-12.59 4.563-3.91 9.542-5.86 14.938-5.86M727.348 1265.47c3.125 0 5.765.81 7.922 2.43 2.01 1.77 3.015 3.98 3.015 6.65 0 4.49-2.307 8.68-6.922 12.59-4.687 3.91-9.703 5.86-15.046 5.86-3.125 0-5.761-.81-7.907-2.44-2.02-1.76-3.031-3.97-3.031-6.64 0-4.49 2.344-8.69 7.031-12.59 4.563-3.91 9.542-5.86 14.938-5.86M829.115 1297.69c0-1.11-.421-2.05-1.265-2.83-.854-.85-1.833-1.27-2.938-1.27-1.948 0-5.885 1.96-11.812 5.86-6.125 3.97-9.87 6.8-11.235 8.5-.718.91-1.078 1.85-1.078 2.83 0 1.1.427 2.05 1.282 2.83.781.84 1.755 1.26 2.921 1.26 1.886 0 5.86-1.95 11.922-5.86 5.99-3.9 9.698-6.74 11.125-8.5.719-.84 1.078-1.78 1.078-2.82m-5.171-7.22c5.593 0 8.39 2.4 8.39 7.22 0 2.34-.682 5.07-2.047 8.2-1.364 3.06-3.187 5.41-5.468 7.03-5.011 3.39-11.292 5.08-18.844 5.08-5.604 0-8.406-2.41-8.406-7.22 0-2.15.682-4.85 2.046-8.11 1.303-3.12 3.125-5.5 5.469-7.12 5.021-3.39 11.308-5.08 18.86-5.08M456.748 360.186c0-1.105-.422-2.047-1.266-2.829-.854-.843-1.833-1.265-2.937-1.265-1.948 0-5.885 1.953-11.813 5.859-6.125 3.969-9.869 6.802-11.234 8.5-.719.906-1.078 1.849-1.078 2.828 0 1.104.427 2.047 1.281 2.828.781.844 1.755 1.266 2.922 1.266 1.885 0 5.859-1.953 11.922-5.859 5.99-3.907 9.698-6.74 11.125-8.5.719-.844 1.078-1.787 1.078-2.828m-5.172-7.219c5.594 0 8.391 2.406 8.391 7.219 0 2.343-.682 5.078-2.047 8.203-1.365 3.062-3.188 5.406-5.469 7.031-5.01 3.385-11.291 5.078-18.844 5.078-5.604 0-8.406-2.406-8.406-7.219 0-2.146.682-4.849 2.047-8.109 1.302-3.125 3.125-5.5 5.469-7.125 5.021-3.385 11.307-5.078 18.859-5.078M826.434 315.467c3.125 0 5.765.812 7.922 2.437 2.01 1.761 3.015 3.974 3.015 6.641 0 4.489-2.307 8.687-6.922 12.594-4.687 3.906-9.703 5.859-15.047 5.859-3.125 0-5.76-.812-7.906-2.437-2.021-1.761-3.031-3.974-3.031-6.641 0-4.49 2.344-8.688 7.031-12.594 4.563-3.906 9.542-5.859 14.938-5.859M902.106 327.967c3.125 0 5.766.812 7.922 2.437 2.01 1.761 3.015 3.974 3.015 6.641 0 4.489-2.307 8.687-6.921 12.594-4.688 3.906-9.704 5.859-15.047 5.859-3.125 0-5.761-.812-7.907-2.437-2.02-1.761-3.031-3.974-3.031-6.641 0-4.49 2.344-8.688 7.031-12.594 4.563-3.906 9.542-5.859 14.938-5.859M977.778 340.467c3.125 0 5.766.812 7.922 2.437 2.011 1.761 3.016 3.974 3.016 6.641 0 4.49-2.308 8.687-6.922 12.594-4.688 3.906-9.703 5.859-15.047 5.859-3.125 0-5.76-.812-7.906-2.437-2.021-1.761-3.031-3.974-3.031-6.641 0-4.49 2.343-8.688 7.031-12.594 4.562-3.906 9.541-5.859 14.937-5.859M1092.93 310.186c0-1.105-.42-2.047-1.26-2.829-.86-.843-1.84-1.265-2.94-1.265-1.95 0-5.89 1.953-11.81 5.859-6.13 3.969-9.87 6.802-11.24 8.5-.72.906-1.08 1.849-1.08 2.828 0 1.104.43 2.047 1.28 2.828.79.844 1.76 1.266 2.93 1.266 1.88 0 5.86-1.953 11.92-5.859 5.99-3.907 9.7-6.74 11.12-8.5.72-.844 1.08-1.787 1.08-2.828m-5.17-7.219c5.59 0 8.39 2.406 8.39 7.219 0 2.343-.68 5.078-2.05 8.203-1.36 3.062-3.18 5.406-5.47 7.031-5.01 3.385-11.29 5.078-18.84 5.078-5.6 0-8.41-2.406-8.41-7.219 0-2.146.69-4.849 2.05-8.109 1.3-3.125 3.13-5.5 5.47-7.125 5.02-3.386 11.31-5.078 18.86-5.078M1386.94 352.967c3.13 0 5.77.812 7.93 2.437 2.01 1.761 3.01 3.974 3.01 6.641 0 4.49-2.31 8.687-6.92 12.594-4.69 3.906-9.7 5.859-15.05 5.859-3.12 0-5.76-.812-7.9-2.437-2.02-1.761-3.03-3.974-3.03-6.641 0-4.49 2.34-8.688 7.03-12.594 4.56-3.906 9.54-5.859 14.93-5.859M1462.62 340.467c3.12 0 5.76.812 7.92 2.437 2.01 1.761 3.01 3.974 3.01 6.641 0 4.49-2.3 8.687-6.92 12.594-4.69 3.906-9.7 5.859-15.04 5.859-3.13 0-5.76-.812-7.91-2.437-2.02-1.761-3.03-3.974-3.03-6.641 0-4.49 2.34-8.688 7.03-12.594 4.56-3.906 9.54-5.859 14.94-5.859M1538.29 327.967c3.12 0 5.76.812 7.92 2.437 2.01 1.761 3.02 3.974 3.02 6.641 0 4.489-2.31 8.687-6.93 12.594-4.68 3.906-9.7 5.859-15.04 5.859-3.13 0-5.76-.812-7.91-2.437-2.02-1.761-3.03-3.974-3.03-6.641 0-4.49 2.34-8.688 7.03-12.594 4.56-3.906 9.54-5.859 14.94-5.859M1613.96 315.467c3.13 0 5.77.812 7.92 2.437 2.01 1.761 3.02 3.974 3.02 6.641 0 4.489-2.31 8.687-6.92 12.594-4.69 3.906-9.71 5.859-15.05 5.859-3.12 0-5.76-.812-7.91-2.437-2.02-1.761-3.03-3.974-3.03-6.641 0-4.49 2.35-8.688 7.03-12.594 4.57-3.906 9.55-5.859 14.94-5.859M1718.63 302.967c3.13 0 5.77.812 7.93 2.437 2.01 1.761 3.01 3.974 3.01 6.641 0 4.489-2.31 8.687-6.92 12.594-4.69 3.906-9.7 5.859-15.05 5.859-3.12 0-5.76-.812-7.9-2.437-2.02-1.761-3.04-3.974-3.04-6.641 0-4.49 2.35-8.688 7.04-12.594 4.56-3.906 9.54-5.859 14.93-5.859M1945.65 327.967c3.13 0 5.77.812 7.92 2.437 2.01 1.761 3.02 3.974 3.02 6.641 0 4.489-2.31 8.687-6.92 12.594-4.69 3.906-9.71 5.859-15.05 5.859-3.13 0-5.76-.812-7.91-2.437-2.02-1.761-3.03-3.974-3.03-6.641 0-4.49 2.35-8.688 7.03-12.594 4.57-3.906 9.54-5.859 14.94-5.859M2021.32 302.967c3.13 0 5.77.812 7.92 2.437 2.02 1.761 3.02 3.974 3.02 6.641 0 4.489-2.31 8.687-6.92 12.594-4.69 3.906-9.7 5.859-15.05 5.859-3.12 0-5.76-.812-7.9-2.437-2.03-1.761-3.04-3.974-3.04-6.641 0-4.49 2.35-8.688 7.04-12.594 4.56-3.906 9.54-5.859 14.93-5.859M2248.34 327.967c3.12 0 5.77.812 7.92 2.437 2.01 1.761 3.02 3.974 3.02 6.641 0 4.489-2.31 8.687-6.92 12.594-4.69 3.906-9.71 5.859-15.05 5.859-3.13 0-5.76-.812-7.91-2.437-2.02-1.761-3.03-3.974-3.03-6.641 0-4.49 2.34-8.688 7.03-12.594 4.56-3.906 9.54-5.859 14.94-5.859M2353.01 302.967c3.13 0 5.77.812 7.92 2.437 2.01 1.761 3.02 3.974 3.02 6.641 0 4.489-2.31 8.687-6.92 12.594-4.69 3.906-9.71 5.859-15.05 5.859-3.12 0-5.76-.812-7.91-2.437-2.02-1.761-3.03-3.974-3.03-6.641 0-4.49 2.35-8.688 7.03-12.594 4.57-3.906 9.55-5.859 14.94-5.859M2569.66 352.967c3.13 0 5.77.812 7.93 2.437 2.01 1.761 3.01 3.974 3.01 6.641 0 4.49-2.31 8.687-6.92 12.594-4.69 3.906-9.7 5.859-15.05 5.859-3.12 0-5.76-.812-7.9-2.437-2.02-1.761-3.03-3.974-3.03-6.641 0-4.49 2.34-8.688 7.03-12.594 4.56-3.906 9.54-5.859 14.93-5.859M2641.88 327.967c3.13 0 5.77.812 7.92 2.437 2.01 1.761 3.02 3.974 3.02 6.641 0 4.489-2.31 8.687-6.92 12.594-4.69 3.906-9.71 5.859-15.05 5.859-3.12 0-5.76-.812-7.91-2.437-2.02-1.761-3.03-3.974-3.03-6.641 0-4.49 2.35-8.688 7.03-12.594 4.57-3.906 9.55-5.859 14.94-5.859M2714.1 352.967c3.12 0 5.76.812 7.92 2.437 2.01 1.761 3.02 3.974 3.02 6.641 0 4.49-2.31 8.687-6.93 12.594-4.68 3.906-9.7 5.859-15.04 5.859-3.13 0-5.76-.812-7.91-2.437-2.02-1.761-3.03-3.974-3.03-6.641 0-4.49 2.34-8.688 7.03-12.594 4.56-3.906 9.54-5.859 14.94-5.859M2786.32 390.467c3.12 0 5.76.812 7.92 2.437 2.01 1.761 3.01 3.974 3.01 6.641 0 4.49-2.3 8.687-6.92 12.594-4.69 3.906-9.7 5.859-15.04 5.859-3.13 0-5.77-.812-7.91-2.437-2.02-1.761-3.03-3.974-3.03-6.641 0-4.49 2.34-8.688 7.03-12.594 4.56-3.906 9.54-5.859 14.94-5.859M2864.02 327.967c3.12 0 5.77.812 7.92 2.437 2.01 1.761 3.02 3.974 3.02 6.641 0 4.489-2.31 8.687-6.92 12.594-4.69 3.906-9.71 5.859-15.05 5.859-3.13 0-5.76-.812-7.91-2.437-2.02-1.761-3.03-3.974-3.03-6.641 0-4.49 2.34-8.688 7.03-12.594 4.56-3.906 9.54-5.859 14.94-5.859M456.748 1097.69c0-1.11-.422-2.05-1.266-2.83-.854-.85-1.833-1.27-2.937-1.27-1.948 0-5.885 1.96-11.813 5.86-6.125 3.97-9.869 6.8-11.234 8.5-.719.91-1.078 1.85-1.078 2.83 0 1.1.427 2.05 1.281 2.83.781.84 1.755 1.26 2.922 1.26 1.885 0 5.859-1.95 11.922-5.86 5.99-3.9 9.698-6.74 11.125-8.5.719-.84 1.078-1.78 1.078-2.82m-5.172-7.22c5.594 0 8.391 2.4 8.391 7.22 0 2.34-.682 5.07-2.047 8.2-1.365 3.06-3.188 5.41-5.469 7.03-5.01 3.39-11.291 5.08-18.844 5.08-5.604 0-8.406-2.41-8.406-7.22 0-2.15.682-4.85 2.047-8.11 1.302-3.12 3.125-5.5 5.469-7.12 5.021-3.39 11.307-5.08 18.859-5.08"/><path class="Clef" d="M276.639 595.342c-.974-.979-1.461-2.185-1.461-3.617 0-1.433.487-2.636 1.461-3.61.974-.974 2.177-1.461 3.609-1.461s2.638.487 3.617 1.461c.979.974 1.469 2.177 1.469 3.61 0 1.432-.49 2.638-1.469 3.617-.979.979-2.185 1.469-3.617 1.469s-2.635-.49-3.609-1.469m0 25.008c-.974-.974-1.461-2.177-1.461-3.61 0-1.432.487-2.638 1.461-3.617.974-.979 2.177-1.469 3.609-1.469s2.638.49 3.617 1.469c.979.979 1.469 2.185 1.469 3.617 0 1.433-.49 2.636-1.469 3.61-.979.974-2.185 1.461-3.617 1.461s-2.635-.487-3.609-1.461m-33.883-42.383c8.656 0 15.75 2.177 21.281 6.531 5.344 4.563 8.016 10.75 8.016 18.563 0 5.271-1.042 10.088-3.125 14.453-1.959 4.562-4.532 8.599-7.719 12.109-3.261 3.584-7.198 6.969-11.813 10.156a128.753 128.753 0 01-13.875 8.407c-9.698 4.875-15.036 7.312-16.015 7.312-.844 0-1.266-.422-1.266-1.265 0-.323.13-.615.391-.875 3.323-1.959 7.39-4.464 12.203-7.516 3.125-2.021 6.771-4.823 10.937-8.406 4.042-3.386 7.167-6.573 9.375-9.563 2.282-2.937 4.365-6.583 6.25-10.937 1.625-4.365 2.438-8.667 2.438-12.907 0-6.312-1.563-11.812-4.688-16.5-3.125-4.687-7.255-7.031-12.39-7.031-3.646 0-6.771 1.172-9.375 3.516-2.802 2.406-4.823 5.432-6.063 9.078 1.24-.521 2.38-.781 3.422-.781 2.729 0 5.073.979 7.031 2.937 1.948 2.084 2.922 4.459 2.922 7.125 0 2.802-.942 5.313-2.828 7.531-2.021 2.011-4.396 3.016-7.125 3.016-2.927 0-5.562-1.005-7.906-3.016-2.219-2.218-3.328-4.729-3.328-7.531 0-6.708 2.281-12.437 6.843-17.187 4.49-4.813 9.959-7.219 16.407-7.219M276.639 1332.84c-.974-.98-1.461-2.18-1.461-3.61 0-1.44.487-2.64 1.461-3.61.974-.98 2.177-1.47 3.609-1.47s2.638.49 3.617 1.47c.979.97 1.469 2.17 1.469 3.61 0 1.43-.49 2.63-1.469 3.61-.979.98-2.185 1.47-3.617 1.47s-2.635-.49-3.609-1.47m0 25.01c-.974-.97-1.461-2.18-1.461-3.61 0-1.43.487-2.64 1.461-3.62.974-.98 2.177-1.47 3.609-1.47s2.638.49 3.617 1.47c.979.98 1.469 2.19 1.469 3.62 0 1.43-.49 2.64-1.469 3.61-.979.97-2.185 1.46-3.617 1.46s-2.635-.49-3.609-1.46m-33.883-42.38c8.656 0 15.75 2.17 21.281 6.53 5.344 4.56 8.016 10.75 8.016 18.56 0 5.27-1.042 10.09-3.125 14.45-1.959 4.57-4.532 8.6-7.719 12.11-3.261 3.59-7.198 6.97-11.813 10.16-4.5 3.12-9.125 5.93-13.875 8.41-9.698 4.87-15.036 7.31-16.015 7.31-.844 0-1.266-.42-1.266-1.27 0-.32.13-.61.391-.87 3.323-1.96 7.39-4.47 12.203-7.52 3.125-2.02 6.771-4.82 10.937-8.4 4.042-3.39 7.167-6.58 9.375-9.57 2.282-2.93 4.365-6.58 6.25-10.93 1.625-4.37 2.438-8.67 2.438-12.91 0-6.31-1.563-11.81-4.688-16.5-3.125-4.69-7.255-7.03-12.39-7.03-3.646 0-6.771 1.17-9.375 3.51-2.802 2.41-4.823 5.44-6.063 9.08 1.24-.52 2.38-.78 3.422-.78 2.729 0 5.073.98 7.031 2.94 1.948 2.08 2.922 4.46 2.922 7.12 0 2.81-.942 5.32-2.828 7.53-2.021 2.02-4.396 3.02-7.125 3.02-2.927 0-5.562-1-7.906-3.02-2.219-2.21-3.328-4.72-3.328-7.53 0-6.7 2.281-12.43 6.843-17.18 4.49-4.82 9.959-7.22 16.407-7.22M256.224 366.139h.594a2.93 2.93 0 01.672-.094c7.292 0 13.281 2.573 17.969 7.719 4.687 5.073 7.031 10.994 7.031 17.765 0 8.407-3.479 15.245-10.437 20.516-1.823 1.437-4.204 2.609-7.141 3.516.333 4.229.5 7.645.5 10.25 0 .52-.068 2.411-.203 5.671-.261 6.053-2.344 11.292-6.25 15.719-3.771 4.365-8.458 6.547-14.063 6.547-5.27 0-9.76-1.854-13.468-5.562-3.719-3.782-5.579-8.339-5.579-13.672 0-2.802 1.079-5.183 3.235-7.141 2.208-1.948 4.776-2.922 7.703-2.922 2.604 0 4.786 1.011 6.547 3.031 1.823 1.886 2.734 4.23 2.734 7.032 0 2.531-.911 4.708-2.734 6.531-1.823 1.823-4.005 2.734-6.547 2.734a8.075 8.075 0 01-3.016-.578c2.865 4.229 6.672 6.344 11.422 6.344 4.49 0 8.167-1.823 11.031-5.469 3-3.771 4.631-8.166 4.891-13.187.125-3.125.188-4.912.188-5.36 0-3.646-.131-6.64-.391-8.984-3.25.521-6.146.781-8.688.781-9.052 0-16.765-3.583-23.14-10.75-6.25-7.229-9.375-15.823-9.375-25.781 0-2.083.193-4.198.578-6.344.396-1.76.885-3.682 1.469-5.765.323-1.178 1.203-3.068 2.64-5.672a43.319 43.319 0 001.758-2.93c.651-1.172 1.107-1.951 1.367-2.336.646-1.302 1.912-3.062 3.797-5.281a38.885 38.885 0 001.617-1.945c.558-.714 1.032-1.3 1.422-1.758.391-.459.683-.818.875-1.078.193-.261 1.659-1.985 4.399-5.172a34.167 34.167 0 001.898-2.102 51.62 51.62 0 011.516-1.758c.39-.427.685-.734.883-.922-2.344-7.75-3.813-13.937-4.407-18.562-.448-3.708-.672-8.787-.672-15.234 0-5.667 1.303-10.974 3.907-15.922 2.531-5.136 6.078-9.334 10.64-12.594.261-.198.584-.297.969-.297.458 0 .787.099.984.297 3.511 4.229 6.537 9.729 9.079 16.5 2.604 6.771 3.906 12.927 3.906 18.469 0 6.25-1.495 12.109-4.485 17.578-3.385 5.791-7.75 11.781-13.093 17.969 1.364 4.291 3.187 11.026 5.468 20.203m8.297 45.422c3.386-1.24 6.026-3.355 7.922-6.344 2.084-2.865 3.125-6.089 3.125-9.672 0-4.625-1.562-8.729-4.687-12.313-3.198-3.708-7.271-5.791-12.219-6.25 2.802 13.74 4.755 25.266 5.859 34.579m-37.781-22.563c0 6.448 2.604 12.115 7.813 17 5.333 4.75 11.323 7.125 17.968 7.125 2.73 0 5.396-.198 8-.594-1.041-9.896-3.093-21.744-6.156-35.547-3.708.396-6.667 1.698-8.875 3.907-2.156 2.281-3.234 4.854-3.234 7.718 0 4.948 2.64 8.954 7.922 12.016.448.458.671.948.671 1.469 0 .521-.223 1.005-.671 1.453-.396.458-.886.687-1.469.687-.063 0-.354-.062-.875-.187-3.719-2.021-6.583-4.625-8.594-7.813-1.896-3.395-2.844-6.817-2.844-10.265 0-4.49 1.401-8.557 4.203-12.203 2.928-3.646 6.735-5.99 11.422-7.032-1.823-7.291-3.317-12.989-4.484-17.093a5844.243 5844.243 0 00-3.758 4.25c-1.463 1.656-2.325 2.651-2.586 2.984-2.344 3.052-4.135 5.427-5.375 7.125-2.219 3.063-3.849 5.698-4.89 7.906-1.105 2.479-2.079 5.183-2.922 8.11-.844 2.802-1.266 5.797-1.266 8.984m32.609-99.312c-4.885 2.406-8.723 5.854-11.515 10.343-2.865 4.625-4.297 9.604-4.297 14.938 0 4.687 1.172 11.005 3.516 18.953 4.687-5.667 8.203-10.906 10.546-15.719 2.469-5.083 3.704-10.39 3.704-15.922 0-4.166-.651-8.364-1.954-12.593M256.224 1103.64h.594c.261-.06.485-.09.672-.09 7.292 0 13.281 2.57 17.969 7.71 4.687 5.08 7.031 11 7.031 17.77 0 8.41-3.479 15.24-10.437 20.52-1.823 1.43-4.204 2.6-7.141 3.51.333 4.23.5 7.65.5 10.25 0 .52-.068 2.41-.203 5.67-.261 6.05-2.344 11.29-6.25 15.72-3.771 4.37-8.458 6.55-14.063 6.55-5.27 0-9.76-1.86-13.468-5.56-3.719-3.79-5.579-8.34-5.579-13.68 0-2.8 1.079-5.18 3.235-7.14 2.208-1.94 4.776-2.92 7.703-2.92 2.604 0 4.786 1.01 6.547 3.03 1.823 1.89 2.734 4.23 2.734 7.03 0 2.54-.911 4.71-2.734 6.54-1.823 1.82-4.005 2.73-6.547 2.73a7.999 7.999 0 01-3.016-.58c2.865 4.23 6.672 6.35 11.422 6.35 4.49 0 8.167-1.83 11.031-5.47 3-3.77 4.631-8.17 4.891-13.19.125-3.13.188-4.91.188-5.36 0-3.65-.131-6.64-.391-8.98-3.25.52-6.146.78-8.688.78-9.052 0-16.765-3.59-23.14-10.75-6.25-7.23-9.375-15.83-9.375-25.78 0-2.09.193-4.2.578-6.35.396-1.76.885-3.68 1.469-5.76.323-1.18 1.203-3.07 2.64-5.68.521-.78 1.107-1.75 1.758-2.93.651-1.17 1.107-1.95 1.367-2.33.646-1.3 1.912-3.06 3.797-5.28.521-.59 1.06-1.23 1.617-1.95.558-.71 1.032-1.3 1.422-1.76.391-.45.683-.81.875-1.07.193-.26 1.659-1.99 4.399-5.18.646-.65 1.278-1.35 1.898-2.1.62-.74 1.125-1.33 1.516-1.76.39-.42.685-.73.883-.92-2.344-7.75-3.813-13.93-4.407-18.56-.448-3.71-.672-8.79-.672-15.23 0-5.67 1.303-10.98 3.907-15.93 2.531-5.13 6.078-9.33 10.64-12.59.261-.2.584-.3.969-.3.458 0 .787.1.984.3 3.511 4.23 6.537 9.73 9.079 16.5 2.604 6.77 3.906 12.93 3.906 18.47 0 6.25-1.495 12.11-4.485 17.58-3.385 5.79-7.75 11.78-13.093 17.97 1.364 4.29 3.187 11.02 5.468 20.2m8.297 45.42c3.386-1.24 6.026-3.35 7.922-6.34 2.084-2.87 3.125-6.09 3.125-9.67 0-4.63-1.562-8.73-4.687-12.32-3.198-3.71-7.271-5.79-12.219-6.25 2.802 13.74 4.755 25.27 5.859 34.58m-37.781-22.56c0 6.45 2.604 12.11 7.813 17 5.333 4.75 11.323 7.12 17.968 7.12 2.73 0 5.396-.19 8-.59-1.041-9.9-3.093-21.75-6.156-35.55-3.708.4-6.667 1.7-8.875 3.91-2.156 2.28-3.234 4.85-3.234 7.72 0 4.95 2.64 8.95 7.922 12.01.448.46.671.95.671 1.47s-.223 1.01-.671 1.46c-.396.45-.886.68-1.469.68-.063 0-.354-.06-.875-.18-3.719-2.03-6.583-4.63-8.594-7.82-1.896-3.39-2.844-6.81-2.844-10.26 0-4.49 1.401-8.56 4.203-12.21 2.928-3.64 6.735-5.99 11.422-7.03-1.823-7.29-3.317-12.99-4.484-17.09-1.042 1.18-2.294 2.59-3.758 4.25-1.463 1.66-2.325 2.65-2.586 2.98-2.344 3.06-4.135 5.43-5.375 7.13-2.219 3.06-3.849 5.7-4.89 7.9-1.105 2.48-2.079 5.19-2.922 8.11-.844 2.81-1.266 5.8-1.266 8.99m32.609-99.31c-4.885 2.4-8.723 5.85-11.515 10.34-2.865 4.62-4.297 9.6-4.297 14.94 0 4.68 1.172 11 3.516 18.95 4.687-5.67 8.203-10.91 10.546-15.72 2.469-5.08 3.704-10.39 3.704-15.92 0-4.17-.651-8.36-1.954-12.59"/><path class="KeySig" d="M356.74 672.889c0 1.239-.617 1.859-1.851 1.859-1.235 0-1.852-.62-1.852-1.859v-14.453l-8.297 3.125v15.812c0 1.24-.62 1.86-1.859 1.86-1.24 0-1.86-.62-1.86-1.86v-14.547l-3.125 1.172c-.062.063-.322.094-.781.094-.521 0-.976-.195-1.367-.586-.391-.391-.586-.846-.586-1.367v-6.047c0-.979.422-1.599 1.266-1.859l4.593-1.563v-16.016l-3.125 1.079c-.062.062-.322.093-.781.093-.521 0-.976-.195-1.367-.586-.391-.39-.586-.846-.586-1.367v-6.062c0-.907.422-1.49 1.266-1.75l4.593-1.766v-15.719c0-1.239.62-1.859 1.86-1.859 1.239 0 1.859.62 1.859 1.859v14.453l8.297-3.125v-15.812c0-1.24.617-1.859 1.852-1.859 1.234 0 1.851.619 1.851 1.859v14.547l3.235-1.172c.062-.063.286-.094.671-.094.459 0 .948.193 1.469.578.396.396.594.855.594 1.375v6.047c0 .917-.458 1.537-1.375 1.86l-4.594 1.562v16.016l3.235-1.078c.062-.063.286-.094.671-.094.459 0 .948.198 1.469.594.396.385.594.838.594 1.359v6.062c0 .844-.458 1.428-1.375 1.75l-4.594 1.766v15.719m-3.703-40.625l-8.297 2.922v16.015l8.297-2.922v-16.015M331.74 635.389c0 1.239-.617 1.859-1.851 1.859-1.235 0-1.852-.62-1.852-1.859v-14.453l-8.297 3.125v15.812c0 1.24-.62 1.86-1.859 1.86-1.24 0-1.86-.62-1.86-1.86v-14.547l-3.125 1.172c-.062.063-.322.094-.781.094-.521 0-.976-.195-1.367-.586-.391-.391-.586-.846-.586-1.367v-6.047c0-.979.422-1.599 1.266-1.859l4.593-1.563v-16.016l-3.125 1.079c-.062.062-.322.093-.781.093-.521 0-.976-.195-1.367-.586-.391-.39-.586-.846-.586-1.367v-6.062c0-.907.422-1.49 1.266-1.75l4.593-1.766v-15.719c0-1.239.62-1.859 1.86-1.859 1.239 0 1.859.62 1.859 1.859v14.453l8.297-3.125v-15.812c0-1.24.617-1.859 1.852-1.859 1.234 0 1.851.619 1.851 1.859v14.547l3.235-1.172c.062-.063.286-.094.671-.094.459 0 .948.193 1.469.578.396.396.594.854.594 1.375v6.047c0 .917-.458 1.537-1.375 1.86l-4.594 1.562v16.016l3.235-1.078c.062-.063.286-.094.671-.094.459 0 .948.198 1.469.594.396.385.594.838.594 1.359v6.062c0 .844-.458 1.428-1.375 1.75l-4.594 1.766v15.719m-3.703-40.625l-8.297 2.922v16.015l8.297-2.922v-16.015M356.74 1410.39c0 1.24-.617 1.86-1.851 1.86-1.235 0-1.852-.62-1.852-1.86v-14.45l-8.297 3.12v15.81c0 1.24-.62 1.86-1.859 1.86-1.24 0-1.86-.62-1.86-1.86v-14.54l-3.125 1.17c-.062.06-.322.09-.781.09-.521 0-.976-.19-1.367-.58-.391-.39-.586-.85-.586-1.37v-6.05c0-.98.422-1.6 1.266-1.86l4.593-1.56v-16.02l-3.125 1.08c-.062.07-.322.1-.781.1-.521 0-.976-.2-1.367-.59-.391-.39-.586-.85-.586-1.37v-6.06c0-.91.422-1.49 1.266-1.75l4.593-1.76v-15.72c0-1.24.62-1.86 1.86-1.86 1.239 0 1.859.62 1.859 1.86v14.45l8.297-3.13v-15.81c0-1.24.617-1.86 1.852-1.86 1.234 0 1.851.62 1.851 1.86v14.55l3.235-1.17c.062-.07.286-.1.671-.1.459 0 .948.2 1.469.58.396.4.594.86.594 1.38v6.04c0 .92-.458 1.54-1.375 1.86l-4.594 1.57v16.01l3.235-1.08c.062-.06.286-.09.671-.09.459 0 .948.2 1.469.59.396.39.594.84.594 1.36v6.06c0 .85-.458 1.43-1.375 1.75l-4.594 1.77v15.72m-3.703-40.63l-8.297 2.93v16.01l8.297-2.92v-16.02M331.74 1372.89c0 1.24-.617 1.86-1.851 1.86-1.235 0-1.852-.62-1.852-1.86v-14.45l-8.297 3.12v15.81c0 1.24-.62 1.86-1.859 1.86-1.24 0-1.86-.62-1.86-1.86v-14.54l-3.125 1.17c-.062.06-.322.09-.781.09-.521 0-.976-.19-1.367-.58-.391-.39-.586-.85-.586-1.37v-6.05c0-.98.422-1.6 1.266-1.86l4.593-1.56v-16.02l-3.125 1.08c-.062.07-.322.1-.781.1-.521 0-.976-.2-1.367-.59-.391-.39-.586-.85-.586-1.37v-6.06c0-.91.422-1.49 1.266-1.75l4.593-1.76v-15.72c0-1.24.62-1.86 1.86-1.86 1.239 0 1.859.62 1.859 1.86v14.45l8.297-3.13v-15.81c0-1.24.617-1.86 1.852-1.86 1.234 0 1.851.62 1.851 1.86v14.55l3.235-1.17c.062-.07.286-.1.671-.1.459 0 .948.2 1.469.58.396.4.594.86.594 1.38v6.04c0 .92-.458 1.54-1.375 1.86l-4.594 1.57v16.01l3.235-1.08c.062-.06.286-.09.671-.09.459 0 .948.2 1.469.59.396.39.594.84.594 1.36v6.06c0 .85-.458 1.43-1.375 1.75l-4.594 1.77v15.72m-3.703-40.63l-8.297 2.93v16.01l8.297-2.92v-16.02M356.74 385.389c0 1.239-.617 1.859-1.851 1.859-1.235 0-1.852-.62-1.852-1.859v-14.453l-8.297 3.125v15.812c0 1.24-.62 1.859-1.859 1.859-1.24 0-1.86-.619-1.86-1.859v-14.547l-3.125 1.172c-.062.063-.322.094-.781.094-.521 0-.976-.196-1.367-.586-.391-.391-.586-.846-.586-1.367v-6.047c0-.979.422-1.599 1.266-1.86l4.593-1.562v-16.016l-3.125 1.078c-.062.063-.322.094-.781.094-.521 0-.976-.195-1.367-.586-.391-.39-.586-.846-.586-1.367v-6.062c0-.907.422-1.49 1.266-1.75l4.593-1.766v-15.719c0-1.239.62-1.859 1.86-1.859 1.239 0 1.859.62 1.859 1.859v14.453l8.297-3.125v-15.812c0-1.24.617-1.86 1.852-1.86 1.234 0 1.851.62 1.851 1.86v14.547l3.235-1.172c.062-.063.286-.094.671-.094.459 0 .948.193 1.469.578.396.396.594.854.594 1.375v6.047c0 .917-.458 1.537-1.375 1.859l-4.594 1.563v16.016l3.235-1.079c.062-.062.286-.093.671-.093.459 0 .948.198 1.469.593.396.386.594.839.594 1.36v6.062c0 .844-.458 1.427-1.375 1.75l-4.594 1.766v15.719m-3.703-40.625l-8.297 2.922v16.015l8.297-2.922v-16.015M331.74 347.889c0 1.239-.617 1.859-1.851 1.859-1.235 0-1.852-.62-1.852-1.859v-14.453l-8.297 3.125v15.812c0 1.24-.62 1.859-1.859 1.859-1.24 0-1.86-.619-1.86-1.859v-14.547l-3.125 1.172c-.062.063-.322.094-.781.094-.521 0-.976-.196-1.367-.586-.391-.391-.586-.847-.586-1.367v-6.047c0-.979.422-1.599 1.266-1.86l4.593-1.562v-16.016l-3.125 1.078c-.062.063-.322.094-.781.094-.521 0-.976-.195-1.367-.586-.391-.39-.586-.846-.586-1.367v-6.062c0-.907.422-1.49 1.266-1.75l4.593-1.766v-15.719c0-1.239.62-1.859 1.86-1.859 1.239 0 1.859.62 1.859 1.859v14.453l8.297-3.125v-15.812c0-1.24.617-1.86 1.852-1.86 1.234 0 1.851.62 1.851 1.86v14.547l3.235-1.172c.062-.063.286-.094.671-.094.459 0 .948.193 1.469.578.396.396.594.854.594 1.375v6.047c0 .917-.458 1.536-1.375 1.859l-4.594 1.563v16.016l3.235-1.079c.062-.062.286-.093.671-.093.459 0 .948.198 1.469.593.396.386.594.839.594 1.36v6.062c0 .844-.458 1.427-1.375 1.75l-4.594 1.766v15.719m-3.703-40.625l-8.297 2.922v16.015l8.297-2.922v-16.015M356.74 1122.89c0 1.24-.617 1.86-1.851 1.86-1.235 0-1.852-.62-1.852-1.86v-14.45l-8.297 3.12v15.81c0 1.24-.62 1.86-1.859 1.86-1.24 0-1.86-.62-1.86-1.86v-14.54l-3.125 1.17c-.062.06-.322.09-.781.09-.521 0-.976-.19-1.367-.58-.391-.39-.586-.85-.586-1.37v-6.05c0-.98.422-1.6 1.266-1.86l4.593-1.56v-16.02l-3.125 1.08c-.062.07-.322.1-.781.1-.521 0-.976-.2-1.367-.59-.391-.39-.586-.85-.586-1.37v-6.06c0-.91.422-1.49 1.266-1.75l4.593-1.76v-15.72c0-1.24.62-1.86 1.86-1.86 1.239 0 1.859.62 1.859 1.86v14.45l8.297-3.13v-15.81c0-1.24.617-1.86 1.852-1.86 1.234 0 1.851.62 1.851 1.86v14.55l3.235-1.17c.062-.07.286-.1.671-.1.459 0 .948.2 1.469.58.396.4.594.86.594 1.38v6.04c0 .92-.458 1.54-1.375 1.86l-4.594 1.57v16.01l3.235-1.08c.062-.06.286-.09.671-.09.459 0 .948.2 1.469.59.396.39.594.84.594 1.36v6.06c0 .85-.458 1.43-1.375 1.75l-4.594 1.77v15.72m-3.703-40.63l-8.297 2.93v16.01l8.297-2.92v-16.02M331.74 1085.39c0 1.24-.617 1.86-1.851 1.86-1.235 0-1.852-.62-1.852-1.86v-14.45l-8.297 3.12v15.81c0 1.24-.62 1.86-1.859 1.86-1.24 0-1.86-.62-1.86-1.86v-14.54l-3.125 1.17c-.062.06-.322.09-.781.09-.521 0-.976-.19-1.367-.58-.391-.39-.586-.85-.586-1.37v-6.05c0-.98.422-1.6 1.266-1.86l4.593-1.56v-16.02l-3.125 1.08c-.062.07-.322.1-.781.1-.521 0-.976-.2-1.367-.59-.391-.39-.586-.85-.586-1.37v-6.06c0-.91.422-1.49 1.266-1.75l4.593-1.76v-15.72c0-1.24.62-1.86 1.86-1.86 1.239 0 1.859.62 1.859 1.86v14.45l8.297-3.13v-15.81c0-1.24.617-1.86 1.852-1.86 1.234 0 1.851.62 1.851 1.86v14.55l3.235-1.17c.062-.07.286-.1.671-.1.459 0 .948.2 1.469.58.396.4.594.86.594 1.38v6.04c0 .92-.458 1.54-1.375 1.86l-4.594 1.57v16.01l3.235-1.08c.062-.06.286-.09.671-.09.459 0 .948.2 1.469.59.396.39.594.84.594 1.36v6.06c0 .85-.458 1.43-1.375 1.75l-4.594 1.77v15.72m-3.703-40.63l-8.297 2.93v16.01l8.297-2.92v-16.02"/><path class="Rest" d="M1214.15 1357.36h-35.54c-.66 0-.99-.32-.99-.97v-13.67c0-.66.33-.99.99-.99h35.54c.65 0 .97.33.97.99v13.67c0 .65-.32.97-.97.97M1596.35 1357.36h-35.54c-.66 0-.99-.32-.99-.97v-13.67c0-.66.33-.99.99-.99h35.54c.65 0 .97.33.97.99v13.67c0 .65-.32.97-.97.97M1978.55 1357.36h-35.54c-.66 0-.99-.32-.99-.97v-13.67c0-.66.33-.99.99-.99h35.54c.65 0 .97.33.97.99v13.67c0 .65-.32.97-.97.97M2360.75 1357.36h-35.55c-.65 0-.98-.32-.98-.97v-13.67c0-.66.33-.99.98-.99h35.55c.65 0 .97.33.97.99v13.67c0 .65-.32.97-.97.97M2731.7 1357.36h-35.55c-.65 0-.98-.32-.98-.97v-13.67c0-.66.33-.99.98-.99h35.55c.65 0 .97.33.97.99v13.67c0 .65-.32.97-.97.97M735.824 346.217c1.885 0 3.318.521 4.297 1.562.979 1.177 1.5 2.287 1.562 3.328.136.98.464 2.084.985 3.313.583 1.042 1.328 1.562 2.234 1.562.719 0 1.797-.812 3.234-2.437 1.303-1.427 2.245-2.698 2.829-3.813.322-.645.776-.968 1.359-.968h.109c.646.062 1.099.385 1.36.968l-12.297 42c-.656.657-1.571.985-2.742.985-1.172 0-2.081-.328-2.727-.985l11.719-32.625c-4.167 1.5-7.682 2.25-10.547 2.25-2.344 0-4.365-.75-6.063-2.25-1.76-1.427-2.64-3.312-2.64-5.656 0-2.021.719-3.713 2.156-5.078 1.427-1.437 3.151-2.156 5.172-2.156M835.002 1104.23h-35.547c-.656 0-.984-.33-.984-.98v-13.67c0-.65.328-.97.984-.97h35.547c.646 0 .969.32.969.97v13.67c0 .65-.323.98-.969.98M1214.15 1094.86h-35.54c-.66 0-.99-.33-.99-.97v-13.67c0-.66.33-.99.99-.99h35.54c.65 0 .97.33.97.99v13.67c0 .64-.32.97-.97.97M1596.35 1094.86h-35.54c-.66 0-.99-.33-.99-.97v-13.67c0-.66.33-.99.99-.99h35.54c.65 0 .97.33.97.99v13.67c0 .64-.32.97-.97.97M1978.55 1094.86h-35.54c-.66 0-.99-.33-.99-.97v-13.67c0-.66.33-.99.99-.99h35.54c.65 0 .97.33.97.99v13.67c0 .64-.32.97-.97.97M2360.75 1094.86h-35.55c-.65 0-.98-.33-.98-.97v-13.67c0-.66.33-.99.98-.99h35.55c.65 0 .97.33.97.99v13.67c0 .64-.32.97-.97.97M2731.7 1094.86h-35.55c-.65 0-.98-.33-.98-.97v-13.67c0-.66.33-.99.98-.99h35.55c.65 0 .97.33.97.99v13.67c0 .64-.32.97-.97.97"/><path class="Beam" fill-rule="evenodd" d="M426.104 629.223l230.266-12.679v12.519l-230.266 12.679v-12.519M728.793 629.223l230.267-12.679v12.519l-230.267 12.679v-12.519M1062.29 629.223l230.26-12.679v12.519l-230.26 12.679v-12.519M1364.98 629.223l230.26-12.679v12.519l-230.26 12.679v-12.519M1696.66 629.223l230.27-12.679v12.519l-230.27 12.679v-12.519M1999.35 629.223l230.27-12.679v12.519l-230.27 12.679v-12.519M2331.04 629.222l219.91-12.687v12.52l-219.91 12.688v-12.521M2619.91 666.733h225.39v12.5h-225.39v-12.5M426.104 1366.73l282.525-12.65v12.51l-282.525 12.65v-12.51M804.465 404.211L959.06 416.98v12.542l-154.595-12.768v-12.543M1364.98 435.424l230.26-31.698v12.618l-230.26 31.697v-12.617M2649.58 260.482h225.38v12.5h-225.38v-12.5"/><path class="Hook" d="M1946.43 356.873c1.5 0 3.1 2.438 4.8 7.313 1.62 4.823 2.44 9.416 2.44 13.781 0 3.708-.92 7.385-2.74 11.031-1.88 3.906-4.13 7.292-6.73 10.156l-8.02 8.985c-2.47 2.864-4.68 6.182-6.64 9.953-1.82 3.646-2.73 7.359-2.73 11.14h-3.13v-25h3.13c1.76-1.104 4.36-2.864 7.81-5.281 1.56-1.166 3.91-3.12 7.03-5.859 2.54-2.344 4.46-4.75 5.77-7.219 1.36-2.604 2.04-5.239 2.04-7.906 0-6.188-1.79-12.344-5.37-18.469v-.391c0-.583.2-1.067.59-1.453.52-.52 1.11-.781 1.75-.781M2249.12 356.873c1.5 0 3.1 2.438 4.8 7.313 1.62 4.823 2.44 9.416 2.44 13.781 0 3.708-.92 7.385-2.74 11.031-1.88 3.906-4.13 7.292-6.73 10.156l-8.02 8.985c-2.47 2.864-4.68 6.182-6.64 9.953-1.82 3.646-2.73 7.359-2.73 11.14h-3.13v-25h3.13c1.76-1.104 4.36-2.864 7.81-5.281 1.56-1.166 3.9-3.12 7.03-5.859 2.54-2.344 4.46-4.75 5.77-7.219 1.36-2.604 2.04-5.239 2.04-7.906 0-6.188-1.79-12.344-5.37-18.469v-.391c0-.583.19-1.067.59-1.453.52-.52 1.1-.781 1.75-.781M2570.45 381.873c1.5 0 3.09 2.438 4.79 7.313 1.63 4.823 2.44 9.416 2.44 13.781 0 3.708-.91 7.385-2.73 11.031-1.89 3.906-4.13 7.292-6.74 10.156l-8.01 8.985c-2.47 2.864-4.69 6.182-6.65 9.953-1.82 3.646-2.73 7.359-2.73 11.14h-3.12v-25h3.12c1.76-1.104 4.36-2.864 7.81-5.281 1.57-1.166 3.91-3.12 7.03-5.859 2.55-2.344 4.47-4.75 5.77-7.219 1.36-2.604 2.05-5.239 2.05-7.906 0-6.188-1.8-12.344-5.38-18.469v-.391c0-.583.2-1.067.6-1.453.52-.52 1.1-.781 1.75-.781"/><path class="NoteDot" d="M1739.99 308.24c-1.11-1.109-1.66-2.445-1.66-4.008 0-1.562.55-2.898 1.66-4.007 1.11-1.11 2.45-1.664 4.01-1.664 1.56 0 2.9.554 4 1.664 1.1 1.109 1.66 2.445 1.66 4.007 0 1.563-.56 2.899-1.66 4.008-1.1 1.11-2.44 1.664-4 1.664s-2.9-.554-4.01-1.664M2042.68 308.24c-1.11-1.109-1.66-2.445-1.66-4.008 0-1.562.55-2.898 1.66-4.007 1.11-1.11 2.45-1.664 4.01-1.664 1.56 0 2.9.554 4 1.664 1.1 1.109 1.66 2.445 1.66 4.007 0 1.563-.56 2.899-1.66 4.008-1.1 1.11-2.44 1.664-4 1.664s-2.9-.554-4.01-1.664M2374.37 308.24c-1.11-1.109-1.66-2.445-1.66-4.008 0-1.562.55-2.898 1.66-4.007 1.11-1.11 2.45-1.664 4.01-1.664 1.56 0 2.89.554 4 1.664 1.1 1.109 1.66 2.445 1.66 4.007 0 1.563-.56 2.899-1.66 4.008-1.11 1.11-2.44 1.664-4 1.664s-2.9-.554-4.01-1.664"/><path class="Page" d="M141.953 3728.35c.136-.61.271-1.14.406-1.6.136-.45.422-1.11.86-1.97.437-.87.929-1.59 1.476-2.16.547-.57 1.308-1.09 2.282-1.54.974-.45 2.075-.68 3.304-.68 2.063 0 3.805.68 5.227 2.04 1.422 1.36 2.133 3.03 2.133 5.02 0 3.04-1.703 6.35-5.11 9.94l-6.687 7.08h9.515c.907 0 1.579-.15 2.016-.46.438-.31 1.031-1.04 1.781-2.2l.516.21-2.188 5.37h-15.562v-.47l7.109-7.54c3.469-3.68 5.203-7.14 5.203-10.39 0-1.69-.52-3.06-1.562-4.11-1.042-1.04-2.401-1.57-4.078-1.57-1.386 0-2.498.39-3.336 1.15-.839.77-1.659 2.13-2.461 4.09l-.844-.21"/><path class="Bracket" fill-rule="evenodd" d="M183.775 445.701c0-29.204-20.114-57.592-20.114-85.571 0-14.091 5.486-27.774 22.4-40.028.228-.153.343-.408.343-.562 0-.459-1.257-.867-2.172-.867-.457 0-1.257.051-1.828.408-21.943 15.725-29.257 33.901-29.257 52.282 0 29.612 21.485 58.204 21.485 86.591 0 14.092-5.485 27.367-22.4 39.62v.817c16.915 12.253 22.4 25.528 22.4 39.62 0 28.387-21.485 56.979-21.485 86.591 0 18.381 7.314 36.557 29.257 52.282.571.357 1.371.408 1.828.408.915 0 2.172-.408 2.172-.867 0-.154-.115-.409-.343-.562-16.914-12.254-22.4-25.937-22.4-40.028 0-27.979 20.114-56.367 20.114-85.571 0-18.584-7.314-36.352-28.8-52.281 21.486-15.93 28.8-33.698 28.8-52.282M183.775 1183.2c0-29.2-20.114-57.59-20.114-85.57 0-14.09 5.486-27.77 22.4-40.03.228-.15.343-.41.343-.56 0-.46-1.257-.87-2.172-.87-.457 0-1.257.05-1.828.41-21.943 15.73-29.257 33.9-29.257 52.28 0 29.62 21.485 58.21 21.485 86.59 0 14.1-5.485 27.37-22.4 39.62v.82c16.915 12.25 22.4 25.53 22.4 39.62 0 28.39-21.485 56.98-21.485 86.59 0 18.38 7.314 36.56 29.257 52.28.571.36 1.371.41 1.828.41.915 0 2.172-.41 2.172-.87 0-.15-.115-.4-.343-.56-16.914-12.25-22.4-25.93-22.4-40.02 0-27.98 20.114-56.37 20.114-85.58 0-18.58-7.314-36.35-28.8-52.28 21.486-15.93 28.8-33.69 28.8-52.28"/></svg>
